<svg width="40" height="40" viewBox="0 0 40 40" fill="none" xmlns="http://www.w3.org/2000/svg">
<rect width="39.19" height="39.19" fill="white"/>
<path d="M4.89874 21.432C4.89874 20.418 5.72173 19.595 6.73577 19.595H10.4098C11.4239 19.595 12.2469 20.418 12.2469 21.432V32.4542C12.2469 33.4683 11.4239 34.2912 10.4098 34.2912H6.73577C6.24856 34.2912 5.78131 34.0977 5.4368 33.7532C5.09229 33.4087 4.89874 32.9414 4.89874 32.4542V21.432ZM15.9209 14.0839C15.9209 13.0699 16.7439 12.2469 17.758 12.2469H21.432C22.4461 12.2469 23.2691 13.0699 23.2691 14.0839V32.4542C23.2691 33.4683 22.4461 34.2912 21.432 34.2912H17.758C17.2708 34.2912 16.8035 34.0977 16.459 33.7532C16.1145 33.4087 15.9209 32.9414 15.9209 32.4542V14.0839ZM26.9431 6.73577C26.9431 5.72173 27.7661 4.89874 28.7801 4.89874H32.4542C33.4683 4.89874 34.2912 5.72173 34.2912 6.73577V32.4542C34.2912 33.4683 33.4683 34.2912 32.4542 34.2912H28.7801C28.2929 34.2912 27.8257 34.0977 27.4812 33.7532C27.1367 33.4087 26.9431 32.9414 26.9431 32.4542V6.73577Z" fill="#001E78"/>
</svg>
