<svg width="173" height="269" viewBox="0 0 173 269" fill="none" xmlns="http://www.w3.org/2000/svg">
<path fill-rule="evenodd" clip-rule="evenodd" d="M258.795 107.435C277.761 96.5779 292.223 88.1528 303.076 81.7143C290.816 88.5693 275.57 97.3621 258.795 107.435ZM360.641 169.265C341.697 165.166 299.034 158.102 244.527 151.953C307.318 162.561 343.905 167.628 360.641 169.265ZM138.328 262.875C139.192 264.799 140.178 264.747 140.554 264.724C146.43 264.391 162.689 244.048 186.37 169.92C186.645 169.066 187.554 168.596 188.403 168.869C189.09 169.091 189.526 169.73 189.526 170.418C189.526 170.582 189.5 170.75 189.449 170.916C165.738 245.141 166.514 259.074 167.111 261.429C169.754 259.44 177.128 246.197 184.49 223.223C192.782 197.352 196.711 172.337 195.269 154.592C195.266 154.547 195.264 154.503 195.264 154.457C195.264 153.62 195.904 152.909 196.75 152.839C197.632 152.761 198.42 153.433 198.492 154.327C201.952 196.92 239.431 251.766 246.009 253.877C246.324 251.973 245.759 239.293 207.53 169.161C207.394 168.912 207.329 168.642 207.331 168.375C207.333 167.802 207.637 167.248 208.172 166.952C208.954 166.519 209.939 166.809 210.366 167.596C227.178 198.44 248.127 221.488 270.947 234.244C289.277 244.492 308.655 247.822 324.124 243.38C338.411 239.276 346.881 229.308 346.229 217.364C345.029 195.313 313.436 166.555 228.368 151.977C227.579 151.842 227.021 151.154 227.023 150.375C227.023 150.284 227.031 150.193 227.047 150.102C227.079 149.902 227.147 149.718 227.242 149.553C224.392 149.257 221.523 148.965 218.621 148.677C217.785 148.592 217.162 147.885 217.162 147.058C217.162 147.005 217.165 146.951 217.17 146.897C217.258 146.003 218.076 145.357 218.939 145.438C261.827 149.714 292.504 142.356 310.686 135.434C335.025 126.165 347.691 113.828 351.428 105.372C352.938 101.96 353.931 97.1549 350.095 93.6434C341.523 85.7956 305.352 84.7856 224.164 130.766C223.39 131.205 222.4 130.93 221.962 130.146C221.951 130.127 221.941 130.107 221.93 130.086C218.538 132.243 215.125 134.429 211.706 136.639C210.952 137.126 209.953 136.904 209.472 136.15C209.299 135.878 209.214 135.574 209.214 135.275C209.214 134.738 209.478 134.214 209.958 133.904C261.109 100.844 278.955 65.7607 276.77 55.1594C276.392 53.328 275.47 52.3147 273.951 52.0642C266.96 50.9159 244.326 64.9605 208.696 126.319C208.249 127.097 207.26 127.359 206.484 126.903C205.97 126.601 205.684 126.056 205.684 125.496C205.684 125.218 205.755 124.937 205.905 124.68C237.303 70.606 232.878 27.4263 215.479 10.189C208.476 3.25206 200.127 1.65323 193.146 5.90159C178.6 14.7561 169.021 49.6098 189.9 118.701C189.947 118.86 189.969 119.02 189.969 119.176C189.969 119.874 189.521 120.518 188.823 120.731C187.964 120.999 187.066 120.506 186.805 119.647C162.813 40.2495 153.858 31.1916 152.297 30.1751C149.018 36.2158 161.906 98.1162 190.622 135.105C190.854 135.401 190.963 135.753 190.965 136.101C190.967 136.586 190.755 137.067 190.344 137.389C189.636 137.942 188.622 137.815 188.074 137.109C158.838 99.4499 81.1032 63.739 72.8337 66.0421C73.6809 68.1598 82.3771 79.7988 167.985 127.331C168.519 127.629 168.819 128.183 168.819 128.757C168.819 129.022 168.755 129.292 168.619 129.541C168.187 130.325 167.206 130.615 166.422 130.179C86.8829 86.0168 34.398 98.9701 13.6185 123.481C1.26034 138.061 0.0461921 156.996 10.6001 170.597C28.1931 193.267 77.4219 202.285 162.829 159.603C163.635 159.203 164.601 159.533 164.997 160.337C165.112 160.57 165.166 160.817 165.166 161.059C165.166 161.658 164.837 162.233 164.27 162.516C56.6068 216.32 50.6444 228.842 50.3323 230.267C56.8121 234.181 136.739 202.856 184.102 154.682C184.729 154.043 185.753 154.036 186.388 154.669C186.71 154.987 186.868 155.407 186.868 155.827C186.868 156.238 186.713 156.651 186.401 156.969C145.569 198.501 132.967 250.915 138.328 262.875ZM135.211 264.426C129.824 252.407 139.155 211.848 167.268 174.331C121.441 211.531 59.1287 237.423 49.0161 233.51C47.7306 233.014 46.9576 232.018 46.8994 230.772C46.5227 222.753 84.1517 200.772 121.48 180.985C97.2639 189.443 76.8202 192.993 60.0197 192.995C34.24 192.997 17.032 184.641 7.8604 172.827C-3.66713 157.976 -2.41881 137.393 10.9683 121.606C29.043 100.29 69.9125 87.215 130.49 110.075C97.3851 90.6951 68.6269 71.94 69.3514 65.6401C69.4144 65.0904 69.7572 63.7569 71.565 63.2447C81.6761 60.3842 142.186 88.7192 176.904 120.819C155.81 84.3642 145.191 36.3439 149.418 28.6893C150.052 27.538 151.081 26.9558 152.253 27.0713C157.966 27.6827 167.85 52.2677 176.875 78.6953C169.792 34.7909 178.555 11.136 191.311 3.37414C199.522 -1.61832 209.59 0.199782 217.592 8.12593C226.977 17.4197 232.27 33.3696 232.115 51.8888C231.993 66.4499 228.573 82.3347 222.088 98.8017C241.538 69.9886 262.317 47.1241 274.329 49.1031C277.198 49.5747 279.138 51.5782 279.792 54.7461C282.005 65.4791 269.671 89.1843 241.934 113.886C263.833 100.417 282.117 89.8072 292.904 83.6617C330.948 61.9844 332.467 62.8121 333.283 63.2609C333.801 63.5423 334.163 64.144 334.168 64.7359C334.176 65.9425 334.184 66.8142 308.605 82.1347C299.362 87.6703 287.906 94.3898 274.578 102.1C288.088 96.3901 300.405 92.157 311.202 89.5405C330.998 84.7464 345.537 85.4327 352.141 91.4773C356.248 95.2371 356.998 100.726 354.251 106.933C346.462 124.546 311.51 146.702 256.812 149.816C289.938 153.74 314.824 157.531 328.568 159.773C372.477 166.938 373.441 169.217 373.802 170.075C374.033 170.622 373.93 171.397 373.564 171.862C372.799 172.835 371.842 174.043 337.562 169.446C321.482 167.291 301.055 164.218 277.214 160.373C294.582 165.831 309.172 172.31 320.837 179.763C338.501 191.047 348.619 204.416 349.327 217.408C350.064 230.947 340.695 242.181 324.875 246.723C298.033 254.43 259.901 241.848 227.045 199.649C240.998 227.051 251.947 251.929 248.302 256.411C247.945 256.848 246.916 257.804 245.071 257.225C236.354 254.495 208.059 210.69 198.253 172.614C195.242 212.423 175.766 260.766 168.062 264.743C166.948 265.319 165.821 265.233 164.969 264.506C161.695 261.712 164.798 244.795 170.442 223.329C158.592 251.664 148.058 267.76 140.567 268.184C140.475 268.189 140.379 268.193 140.276 268.193C138.895 268.193 136.651 267.636 135.211 264.426Z" fill="#509BF5"/>
</svg>
