<svg width="33" height="27" viewBox="0 0 33 27" fill="none" xmlns="http://www.w3.org/2000/svg">
<path fill-rule="evenodd" clip-rule="evenodd" d="M32.9218 3.79717C32.9218 1.99365 31.4597 0.53157 29.6562 0.53157H3.5312C1.72764 0.53157 0.265564 1.99365 0.265564 3.79717V23.3909C0.265564 25.1945 1.72764 26.6566 3.5312 26.6566H29.6562C31.4597 26.6566 32.9218 25.1945 32.9218 23.3909V3.79717ZM13.3281 20.9417C13.3281 21.3927 12.9626 21.7582 12.5117 21.7582H7.61327C7.16232 21.7582 6.79682 21.3927 6.79682 20.9417V19.309C6.79682 18.858 7.16232 18.4925 7.61327 18.4925H12.5117C12.9626 18.4925 13.3281 18.858 13.3281 19.309V20.9417ZM28.8398 13.594C29.2907 13.594 29.6562 13.2285 29.6562 12.7777V9.51208C29.6562 9.06113 29.2907 8.69561 28.8398 8.69561H4.3476C3.89671 8.69561 3.5312 9.06113 3.5312 9.51208V12.7777C3.5312 13.2285 3.89671 13.594 4.3476 13.594H28.8398Z" fill="#FAE9B6"/>
</svg>
