<svg width="40" height="40" viewBox="0 0 40 40" fill="none" xmlns="http://www.w3.org/2000/svg">
<g clip-path="url(#clip0_509_2586)">
<g clip-path="url(#clip1_509_2586)">
<path fill-rule="evenodd" clip-rule="evenodd" d="M35.9218 9.79716C35.9218 7.99363 34.4597 6.53156 32.6562 6.53156H6.5312C4.72764 6.53156 3.26556 7.99363 3.26556 9.79716V29.3909C3.26556 31.1945 4.72764 32.6566 6.5312 32.6566H32.6562C34.4597 32.6566 35.9218 31.1945 35.9218 29.3909V9.79716ZM16.3281 26.9417C16.3281 27.3926 15.9626 27.7582 15.5117 27.7582H10.6133C10.1623 27.7582 9.79682 27.3926 9.79682 26.9417V25.3089C9.79682 24.858 10.1623 24.4925 10.6133 24.4925H15.5117C15.9626 24.4925 16.3281 24.858 16.3281 25.3089V26.9417ZM31.8398 19.594C32.2907 19.594 32.6562 19.2285 32.6562 18.7777V15.5121C32.6562 15.0611 32.2907 14.6956 31.8398 14.6956H7.3476C6.89671 14.6956 6.5312 15.0611 6.5312 15.5121V18.7777C6.5312 19.2285 6.89671 19.594 7.3476 19.594H31.8398Z" fill="#001E78"/>
</g>
</g>
<defs>
<clipPath id="clip0_509_2586">
<rect width="39.1875" height="39.1875" fill="white"/>
</clipPath>
<clipPath id="clip1_509_2586">
<rect width="39.1875" height="39.1875" fill="white"/>
</clipPath>
</defs>
</svg>
