<svg width="76" height="76" viewBox="0 0 76 76" fill="none" xmlns="http://www.w3.org/2000/svg">
	<rect width="76" height="76" rx="38" fill="#101828" />
	<rect x="3" y="3" width="70" height="70" rx="35" fill="black" />
	<g clip-path="url(#clip0_509_1861)">
		<mask id="mask0_509_1861" style="mask-type:luminance" maskUnits="userSpaceOnUse" x="26" y="25" width="24" height="24">
			<path d="M50 25H26V49H50V25Z" fill="white" />
		</mask>
		<g mask="url(#mask0_509_1861)">
			<path d="M38 49C37.2083 49 36.4792 48.8021 35.8125 48.4062C35.1667 48.0312 34.6458 47.5209 34.25 46.875C33.875 46.2083 33.6875 45.4792 33.6875 44.6874C33.6875 43.6875 33.9167 42.8542 34.375 42.1875C34.8333 41.5209 35.5417 40.7396 36.5 39.8438C37.2083 39.1979 37.5625 38.5833 37.5625 38V37.4375H37C36.3542 37.4375 35.4687 38.0834 34.3437 39.375C33.2396 40.6667 31.8958 41.3124 30.3125 41.3124C29.5208 41.3124 28.7917 41.125 28.125 40.75C27.4792 40.3541 26.9583 39.8333 26.5625 39.1875C26.1875 38.5209 26 37.7916 26 37C26 36.2083 26.1875 35.4896 26.5625 34.8437C26.9583 34.1771 27.4792 33.6562 28.125 33.2812C28.7917 32.8854 29.5208 32.6875 30.3125 32.6875C31.875 32.6875 33.2083 33.3229 34.3125 34.5937C35.4167 35.8646 36.3125 36.5 37 36.5H37.5625V36C37.5625 35.4167 37.2083 34.8021 36.5 34.1563L35.7812 33.5C35.2604 33.0208 34.7813 32.4479 34.3437 31.7812C33.9062 31.0937 33.6875 30.2708 33.6875 29.3125C33.6875 28.5208 33.875 27.8021 34.25 27.1563C34.6458 26.4896 35.1667 25.9688 35.8125 25.5937C36.4792 25.1979 37.2083 25 38 25C38.7916 25 39.5104 25.1979 40.1563 25.5937C40.8229 25.9896 41.3438 26.5104 41.7188 27.1563C42.1146 27.8021 42.3124 28.5208 42.3124 29.3125C42.3124 30.875 41.677 32.2083 40.4062 33.3125C39.1354 34.4167 38.5 35.3125 38.5 36V36.5H39C39.7083 36.5 40.6041 35.8646 41.6875 34.5937C42.75 33.3229 44.0833 32.6875 45.6876 32.6875C46.4792 32.6875 47.1979 32.8854 47.8437 33.2812C48.5104 33.6562 49.0312 34.1667 49.4062 34.8125C49.8021 35.4583 50 36.1875 50 37C50 37.7916 49.8021 38.5209 49.4062 39.1875C49.0312 39.8333 48.5104 40.3541 47.8437 40.75C47.1979 41.125 46.4792 41.3124 45.6876 41.3124C44.7084 41.3124 43.8646 41.0729 43.1563 40.5938C42.4688 40.1146 41.6979 39.4167 40.8438 38.5C40.1979 37.7916 39.5833 37.4375 39 37.4375H38.5V38C38.5 38.7708 39.1354 39.6666 40.4062 40.6875C41.677 41.7083 42.3124 43.0416 42.3124 44.6874C42.3124 45.4792 42.1146 46.2083 41.7188 46.875C41.3438 47.5209 40.8333 48.0312 40.1875 48.4062C39.5416 48.8021 38.8125 49 38 49Z" fill="url(#paint0_linear_509_1861)" />
		</g>
	</g>
	<defs>
		<linearGradient id="paint0_linear_509_1861" x1="38" y1="25" x2="38" y2="49" gradientUnits="userSpaceOnUse">
			<stop stop-color="#DF99F7" />
			<stop offset="1" stop-color="#FFDBB0" />
		</linearGradient>
		<clipPath id="clip0_509_1861">
			<rect width="24" height="24" fill="white" transform="translate(26 25)" />
		</clipPath>
	</defs>
</svg>
