<svg width="21" height="21" viewBox="0 0 21 21" fill="none" xmlns="http://www.w3.org/2000/svg">
<path d="M10.9503 8.06419C10.4598 8.06419 9.98033 8.20964 9.5725 8.48214C9.16466 8.75465 8.84679 9.14197 8.65909 9.59513C8.47138 10.0483 8.42227 10.5469 8.51796 11.028C8.61365 11.5091 8.84985 11.951 9.19668 12.2978C9.54352 12.6446 9.98541 12.8808 10.4665 12.9765C10.9476 13.0722 11.4462 13.0231 11.8994 12.8354C12.3525 12.6477 12.7398 12.3298 13.0124 11.922C13.2849 11.5142 13.4303 11.0347 13.4303 10.5442C13.4303 10.2185 13.3662 9.89602 13.2415 9.59513C13.1169 9.29425 12.9342 9.02085 12.7039 8.79056C12.4736 8.56028 12.2003 8.3776 11.8994 8.25297C11.5985 8.12834 11.276 8.06419 10.9503 8.06419ZM20.8803 5.61419C20.875 4.84195 20.7328 4.07676 20.4603 3.35419C20.2596 2.82545 19.949 2.34528 19.5491 1.94537C19.1492 1.54547 18.6691 1.23491 18.1403 1.03419C17.4177 0.761653 16.6526 0.61945 15.8803 0.614189C14.5903 0.544189 14.2103 0.544189 10.9503 0.544189C7.69031 0.544189 7.31031 0.544189 6.02031 0.614189C5.24807 0.61945 4.48288 0.761653 3.76031 1.03419C3.23157 1.23491 2.7514 1.54547 2.3515 1.94537C1.95159 2.34528 1.64103 2.82545 1.44031 3.35419C1.16777 4.07676 1.02557 4.84195 1.02031 5.61419C0.95031 6.90419 0.95031 7.28419 0.95031 10.5442C0.95031 13.8042 0.95031 14.1842 1.02031 15.4742C1.03107 16.2491 1.17308 17.0167 1.44031 17.7442C1.64014 18.2705 1.95044 18.7479 2.35031 19.1442C2.7485 19.5465 3.2297 19.8571 3.76031 20.0542C4.48288 20.3267 5.24807 20.4689 6.02031 20.4742C7.31031 20.5442 7.69031 20.5442 10.9503 20.5442C14.2103 20.5442 14.5903 20.5442 15.8803 20.4742C16.6526 20.4689 17.4177 20.3267 18.1403 20.0542C18.6709 19.8571 19.1521 19.5465 19.5503 19.1442C19.9502 18.7479 20.2605 18.2705 20.4603 17.7442C20.7326 17.0181 20.8748 16.2497 20.8803 15.4742C20.9503 14.1842 20.9503 13.8042 20.9503 10.5442C20.9503 7.28419 20.9503 6.90419 20.8803 5.61419ZM18.3403 13.6142C18.3082 14.2313 18.1765 14.8391 17.9503 15.4142C17.7562 15.8939 17.4676 16.3296 17.1017 16.6955C16.7357 17.0615 16.3 17.3501 15.8203 17.5442C15.2398 17.7578 14.6286 17.876 14.0103 17.8942C13.2203 17.8942 13.0103 17.8942 10.9503 17.8942C8.89031 17.8942 8.68031 17.8942 7.89031 17.8942C7.27204 17.876 6.6608 17.7578 6.08031 17.5442C5.58441 17.3599 5.13659 17.0659 4.77031 16.6842C4.40798 16.3254 4.12815 15.8921 3.95031 15.4142C3.73587 14.8343 3.62092 14.2224 3.61031 13.6042C3.61031 12.8142 3.61031 12.6042 3.61031 10.5442C3.61031 8.48419 3.61031 8.27419 3.61031 7.48419C3.62092 6.86601 3.73587 6.25407 3.95031 5.67419C4.13459 5.17829 4.42858 4.73047 4.81031 4.36419C5.17064 4.00381 5.60357 3.72428 6.08031 3.54419C6.6608 3.3306 7.27204 3.2124 7.89031 3.19419C8.68031 3.19419 8.89031 3.19419 10.9503 3.19419C13.0103 3.19419 13.2203 3.19419 14.0103 3.19419C14.6286 3.2124 15.2398 3.3306 15.8203 3.54419C16.3162 3.72847 16.764 4.02246 17.1303 4.40419C17.4926 4.76294 17.7725 5.19632 17.9503 5.67419C18.1639 6.25468 18.2821 6.86592 18.3003 7.48419C18.3003 8.27419 18.3003 8.48419 18.3003 10.5442C18.3003 12.6042 18.3703 12.8142 18.3403 13.6042V13.6142ZM16.7403 6.17419C16.6212 5.85117 16.4335 5.55783 16.1901 5.3144C15.9467 5.07097 15.6533 4.88325 15.3303 4.76419C14.8868 4.61045 14.4197 4.53598 13.9503 4.54419C13.1703 4.54419 12.9503 4.54419 10.9503 4.54419C8.95031 4.54419 8.73031 4.54419 7.95031 4.54419C7.47858 4.5488 7.01138 4.63682 6.57031 4.80419C6.25224 4.91785 5.962 5.0979 5.71889 5.33239C5.47578 5.56688 5.28537 5.85043 5.16031 6.16419C5.01509 6.60956 4.94414 7.07578 4.95031 7.54419C4.95031 8.32419 4.95031 8.54419 4.95031 10.5442C4.95031 12.5442 4.95031 12.7642 4.95031 13.5442C4.96022 14.0154 5.04808 14.4817 5.21031 14.9242C5.32937 15.2472 5.51709 15.5405 5.76052 15.784C6.00395 16.0274 6.29729 16.2151 6.62031 16.3342C7.04698 16.4911 7.49596 16.5789 7.95031 16.5942C8.73031 16.5942 8.95031 16.5942 10.9503 16.5942C12.9503 16.5942 13.1703 16.5942 13.9503 16.5942C14.422 16.5896 14.8892 16.5016 15.3303 16.3342C15.6533 16.2151 15.9467 16.0274 16.1901 15.784C16.4335 15.5405 16.6212 15.2472 16.7403 14.9242C16.9077 14.4831 16.9957 14.0159 17.0003 13.5442C17.0003 12.7642 17.0003 12.5442 17.0003 10.5442C17.0003 8.54419 17.0003 8.32419 17.0003 7.54419C17.0006 7.07199 16.9124 6.60391 16.7403 6.16419V6.17419ZM10.9503 14.3642C10.4491 14.3642 9.95288 14.2653 9.48997 14.0732C9.02707 13.8811 8.60661 13.5996 8.25269 13.2447C7.89877 12.8899 7.61834 12.4687 7.42745 12.0053C7.23657 11.5419 7.13899 11.0454 7.14031 10.5442C7.14031 9.78824 7.36461 9.04929 7.7848 8.42088C8.20499 7.79246 8.80218 7.30285 9.50078 7.01402C10.1994 6.72519 10.968 6.65013 11.7092 6.79834C12.4505 6.94655 13.1312 7.31136 13.665 7.8466C14.1988 8.38183 14.5619 9.06343 14.7081 9.80509C14.8544 10.5468 14.7773 11.3151 14.4867 12.013C14.196 12.7108 13.7048 13.3067 13.0753 13.7253C12.4458 14.1438 11.7063 14.3662 10.9503 14.3642ZM14.9503 7.47419C14.7293 7.45079 14.5247 7.34641 14.376 7.18116C14.2273 7.01591 14.145 6.80148 14.145 6.57919C14.145 6.3569 14.2273 6.14247 14.376 5.97722C14.5247 5.81197 14.7293 5.70759 14.9503 5.68419C15.1714 5.70759 15.3759 5.81197 15.5246 5.97722C15.6733 6.14247 15.7556 6.3569 15.7556 6.57919C15.7556 6.80148 15.6733 7.01591 15.5246 7.18116C15.3759 7.34641 15.1714 7.45079 14.9503 7.47419Z" fill="#E5ECFF"/>
</svg>
