<svg width="40" height="40" viewBox="0 0 40 40" fill="none" xmlns="http://www.w3.org/2000/svg">
<g clip-path="url(#clip0_509_2593)">
<g clip-path="url(#clip1_509_2593)">
<path d="M20.2253 21.8395C21.4533 21.8395 22.4489 20.8439 22.4489 19.6159C22.4489 18.3878 21.4533 17.3923 20.2253 17.3923C18.9973 17.3923 18.0017 18.3878 18.0017 19.6159C18.0017 20.8439 18.9973 21.8395 20.2253 21.8395Z" fill="#001E78"/>
<path d="M20.1556 2.93909C15.7326 2.93909 11.4907 4.69612 8.36317 7.82364C5.23564 10.9512 3.47861 15.193 3.47861 19.616C3.47861 24.039 5.23564 28.2809 8.36317 31.4084C11.4907 34.5359 15.7326 36.2929 20.1556 36.2929C24.5786 36.2929 28.8204 34.5359 31.9479 31.4084C35.0754 28.2809 36.8325 24.039 36.8325 19.616C36.8325 15.193 35.0754 10.9512 31.9479 7.82364C28.8204 4.69612 24.5786 2.93909 20.1556 2.93909ZM31.0067 10.3881L25.5588 18.1707C25.95 19.5667 25.7733 21.0609 25.0672 22.3272C24.3613 23.5934 23.1831 24.5292 21.7899 24.9304C21.2807 25.0783 20.7524 25.1495 20.2223 25.1416C18.7554 25.1625 17.3399 24.6028 16.2839 23.5844C15.2281 22.566 14.6176 21.1716 14.5855 19.705C14.5737 18.9749 14.7059 18.2497 14.9744 17.5707C15.2429 16.8918 15.6425 16.2723 16.1505 15.7479C16.6585 15.2234 17.2648 14.8042 17.9348 14.514C18.6048 14.2239 19.3254 14.0686 20.0554 14.0571C20.5962 14.0546 21.1349 14.1256 21.6565 14.2683L29.439 8.82048C29.55 8.72557 29.6785 8.65345 29.8173 8.60823C29.9562 8.56301 30.1026 8.54558 30.2482 8.55694C30.3937 8.5683 30.5357 8.60822 30.6658 8.67442C30.796 8.74062 30.9118 8.83181 31.0067 8.94278C31.1789 9.14416 31.2736 9.40045 31.2736 9.66544C31.2736 9.93043 31.1789 10.1867 31.0067 10.3881Z" fill="#001E78"/>
</g>
</g>
<defs>
<clipPath id="clip0_509_2593">
<rect width="39.1875" height="39.1875" fill="white" transform="translate(0.5625)"/>
</clipPath>
<clipPath id="clip1_509_2593">
<rect width="39.1875" height="39.1875" fill="white" transform="translate(0.5625)"/>
</clipPath>
</defs>
</svg>
