<svg width="52" height="21" viewBox="0 0 52 21" fill="none" xmlns="http://www.w3.org/2000/svg">
	<path fill-rule="evenodd" clip-rule="evenodd" d="M0.237045 0.296631H10.6829C13.0951 0.296631 15.0498 2.25211 15.0498 4.66355C15.0498 7.07572 13.0944 9.03119 10.6829 9.03119H0.237045V0.296631Z" fill="#D0D5DD" />
	<path fill-rule="evenodd" clip-rule="evenodd" d="M0.23703 20.102H15.0138L5.8571 13.1847L0.23703 9.20972V20.102Z" fill="#D0D5DD" />
	<path d="M17.3869 14.8723V10.3117C17.4537 7.19712 20.0343 5.2394 21.6138 5.2394C22.348 5.2394 22.8596 5.63984 22.8596 6.50747V6.59646C22.8596 6.86342 22.7262 7.55307 21.9475 7.82003C20.2123 8.44294 20.0565 9.75551 20.0565 11.5575C20.0565 11.8912 20.101 12.7143 20.101 14.8723C20.101 15.7399 19.4114 16.1848 18.7217 16.1848C18.0321 16.1848 17.3869 15.7622 17.3869 14.8723ZM23.112 10.6231C23.112 7.26386 25.8929 4.74997 29.0964 4.74997C29.6971 4.74997 30.231 4.81671 30.8317 4.99468C32.4334 5.46187 33.5458 6.46297 34.2354 7.57532C34.9251 8.68766 35.1253 9.75551 35.1253 10.4674C35.1253 10.6899 35.1253 11.3573 34.7471 11.7355C34.5691 11.9357 34.3689 12.0469 34.1464 12.0469C34.0352 12.0469 33.924 12.0247 33.7905 11.9802C33.0563 11.7577 32.3 11.6465 31.5213 11.6465C30.8984 11.6465 30.2532 11.7132 29.6526 11.869C29.5413 11.8912 29.4301 11.9135 29.3189 11.9135C28.8294 11.9135 28.34 11.4685 28.251 11.0903C28.2288 10.8901 28.2065 10.7566 28.2065 10.6676C28.2065 10.2672 28.3623 9.66652 29.1631 9.51079C29.9418 9.37731 30.7204 9.28832 31.4991 9.28832C31.677 9.28832 31.8773 9.31057 32.0775 9.31057C31.5436 8.06475 30.3422 7.44184 29.1187 7.44184C27.8951 7.44184 26.7605 8.0425 26.1598 9.22158C25.9151 9.68877 25.8039 10.156 25.8039 10.6009C25.8039 10.8011 25.7594 11.513 26.3823 12.3806C26.983 13.2705 27.9841 13.8267 29.1187 13.8267C29.6526 13.8267 30.1643 13.6932 30.6537 13.4485C30.8539 13.3373 31.0764 13.2928 31.2766 13.2928C31.8995 13.2928 32.4334 13.7822 32.5447 14.2049C32.6114 14.4051 32.6559 14.5608 32.6559 14.6943C32.6559 14.9835 32.6114 15.4729 31.8995 15.8289C30.9874 16.2738 30.0753 16.4741 29.1187 16.4741C26.0041 16.4741 23.112 14.0714 23.112 10.6231ZM36.4618 1.99136C36.4618 1.07924 37.1515 0.6343 37.8412 0.6343C38.5308 0.6343 39.1982 1.07924 39.1982 1.99136V14.8278C39.1982 15.7177 38.5308 16.1848 37.8412 16.1848C37.1515 16.1848 36.4618 15.7177 36.4618 14.8278V1.99136ZM40.9807 11.2238V6.44073C40.9807 5.55085 41.6704 5.08367 42.36 5.08367C43.0497 5.08367 43.7171 5.52861 43.7171 6.44073V11.2238C43.7171 12.9591 45.0074 13.8044 46.3422 13.8044C47.677 13.8044 49.0119 12.9146 49.0119 11.2238V6.44073C49.0119 5.55085 49.7015 5.08367 50.3912 5.08367C51.0808 5.08367 51.7482 5.52861 51.7482 6.44073V14.6276C51.7482 17.5419 49.568 20.6565 45.7416 20.6565C44.785 20.6565 43.7393 20.4785 42.5825 20.0336C41.8039 19.7443 41.7149 19.2104 41.7149 18.8322C41.7149 18.6098 41.7594 18.1648 42.2266 17.7199C42.449 17.4974 42.716 17.3862 43.0497 17.3862C43.2499 17.3862 43.4724 17.4307 43.6726 17.5419C44.3178 17.8756 44.9407 18.0091 45.5413 18.0091C46.9874 18.0091 48.122 17.1637 48.6559 16.1181C47.944 16.3851 47.2099 16.5186 46.4757 16.5186C43.6281 16.5186 40.9807 14.5831 40.9807 11.2238Z" fill="#D0D5DD" />
</svg>
