<svg width="145" height="61" viewBox="0 0 145 61" fill="none" xmlns="http://www.w3.org/2000/svg">
<path fill-rule="evenodd" clip-rule="evenodd" d="M0.067627 3.5918H28.8839C35.5381 3.5918 40.9305 8.98622 40.9305 15.6385C40.9305 22.2927 35.5361 27.6871 28.8839 27.6871H0.067627V3.5918Z" fill="#F0BD23"/>
<path fill-rule="evenodd" clip-rule="evenodd" d="M0.067627 58.2271H40.8311L15.5713 39.1448L0.067627 28.1794V58.2271Z" fill="#F0BD23"/>
<path d="M54.8649 44.9046C54.8649 46.0911 54.4558 46.9912 53.6375 47.6049C52.8601 48.2186 52.0009 48.5255 51.0599 48.5255C50.1189 48.5255 49.2597 48.2391 48.4823 47.6663C47.7459 47.0526 47.3777 46.132 47.3777 44.9046V32.3236C47.4186 30.1961 47.8482 28.2732 48.6665 26.5548C49.4847 24.7955 50.4667 23.3226 51.6122 22.1361C52.7987 20.9087 54.0466 19.9677 55.3559 19.3131C56.706 18.6584 57.9334 18.3311 59.0381 18.3311C60.0609 18.3311 60.8792 18.6175 61.4929 19.1903C62.1475 19.7631 62.4748 20.6428 62.4748 21.8293C62.4748 21.7065 62.4748 21.7884 62.4748 22.0747C62.4748 22.3611 62.4135 22.7089 62.2907 23.118C62.168 23.5272 61.9225 23.9568 61.5543 24.4068C61.227 24.8569 60.6951 25.2046 59.9587 25.4501C58.363 26.0229 57.197 26.8003 56.4605 27.7822C55.7241 28.7232 55.2331 29.9711 54.9876 31.5258C54.7831 33.0805 54.7012 34.9626 54.7422 37.1719C54.824 39.3403 54.8649 41.9179 54.8649 44.9046ZM63.171 33.1828C63.171 30.8507 63.6211 28.7028 64.5212 26.7389C65.4213 24.7751 66.6078 23.0771 68.0807 21.6452C69.5945 20.1723 71.3538 19.0267 73.3585 18.2084C75.3633 17.3901 77.4704 16.981 79.6797 16.981C80.498 16.981 81.2958 17.0424 82.0732 17.1651C82.8505 17.2469 83.6484 17.4106 84.4666 17.6561C86.676 18.3107 88.558 19.2926 90.1127 20.6019C91.6674 21.8702 92.9153 23.2817 93.8563 24.8364C94.7973 26.3502 95.452 27.905 95.8202 29.5006C96.2293 31.0553 96.3725 32.4464 96.2498 33.6738C96.127 34.8603 95.7588 35.7809 95.1451 36.4355C94.5314 37.0901 93.6927 37.2537 92.6289 36.9264C90.5832 36.3127 88.4966 36.0059 86.3691 36.0059C85.5099 36.0059 84.6303 36.0672 83.7302 36.19C82.871 36.2718 82.0323 36.415 81.214 36.6196C80.1502 36.8651 79.2706 36.7014 78.575 36.1286C77.8795 35.5558 77.4499 34.8603 77.2863 34.042C77.1226 33.2237 77.2249 32.4259 77.5931 31.6486C78.0023 30.8303 78.7592 30.3189 79.8638 30.1143C82.5232 29.6233 85.2031 29.4392 87.9034 29.562C87.1669 27.8436 86.0418 26.5548 84.528 25.6956C83.0142 24.8364 81.4186 24.4068 79.7411 24.4068C78.0636 24.4068 76.4884 24.816 75.0156 25.6342C73.5427 26.4525 72.3971 27.6799 71.5788 29.3165C70.7605 30.9121 70.4332 32.4668 70.5969 33.9806C70.8014 35.4945 71.3129 36.8651 72.1311 38.0925C72.9903 39.279 74.0745 40.2405 75.3838 40.9769C76.7339 41.6724 78.1864 42.0202 79.7411 42.0202C81.214 42.0202 82.6255 41.6724 83.9757 40.9769C84.5485 40.6905 85.1212 40.5473 85.694 40.5473C86.5532 40.5473 87.3101 40.8337 87.9648 41.4065C88.6194 41.9384 89.0694 42.593 89.3149 43.3704C89.5604 44.1068 89.5399 44.8637 89.2535 45.6411C89.0081 46.4184 88.3943 47.0526 87.4124 47.5436C86.1441 48.1573 84.8758 48.6073 83.6074 48.8937C82.3391 49.1801 81.0503 49.3233 79.7411 49.3233C77.5727 49.3233 75.4861 48.9346 73.4813 48.1573C71.5174 47.339 69.7581 46.2343 68.2034 44.8432C66.6896 43.4113 65.4622 41.7133 64.5212 39.7495C63.6211 37.7447 63.171 35.5558 63.171 33.1828ZM99.9982 9.37103C99.9982 8.1027 100.387 7.16168 101.164 6.54798C101.982 5.93427 102.862 5.62742 103.803 5.62742C104.744 5.62742 105.603 5.93427 106.381 6.54798C107.158 7.16168 107.547 8.1027 107.547 9.37103V44.7819C107.547 46.0093 107.158 46.9503 106.381 47.6049C105.603 48.2186 104.744 48.5255 103.803 48.5255C102.862 48.5255 101.982 48.2186 101.164 47.6049C100.387 46.9503 99.9982 46.0093 99.9982 44.7819V9.37103ZM116.883 59.1426C115.819 58.7335 115.123 58.1198 114.796 57.3015C114.469 56.5241 114.407 55.7263 114.612 54.908C114.817 54.0898 115.226 53.3738 115.839 52.7601C116.494 52.1464 117.271 51.8395 118.172 51.8395C118.744 51.8395 119.317 51.9827 119.89 52.2691C120.79 52.7191 121.67 53.0465 122.529 53.251C123.388 53.4556 124.227 53.5579 125.045 53.5579C127.05 53.5579 128.789 53.0465 130.262 52.0236C131.775 51.0008 132.901 49.7734 133.637 48.3414C131.673 49.0778 129.668 49.446 127.623 49.446C125.659 49.446 123.756 49.1187 121.915 48.4641C120.115 47.8095 118.499 46.8685 117.067 45.6411C115.676 44.3727 114.551 42.8385 113.691 41.0383C112.873 39.2381 112.464 37.1719 112.464 34.8398V21.6452C112.464 20.4177 112.853 19.4972 113.63 18.8835C114.448 18.2289 115.328 17.9015 116.269 17.9015C117.21 17.9015 118.069 18.2084 118.847 18.8221C119.624 19.4358 120.013 20.3768 120.013 21.6452V34.8398C120.013 36.0263 120.217 37.0696 120.626 37.9697C121.036 38.8698 121.567 39.6267 122.222 40.2405C122.918 40.8132 123.695 41.2428 124.554 41.5292C125.454 41.8156 126.354 41.9588 127.254 41.9588C128.155 41.9588 129.055 41.8156 129.955 41.5292C130.855 41.2019 131.632 40.7519 132.287 40.1791C132.982 39.5654 133.535 38.8289 133.944 37.9697C134.394 37.0696 134.619 36.0263 134.619 34.8398V21.6452C134.619 20.4177 135.008 19.4972 135.785 18.8835C136.603 18.2289 137.483 17.9015 138.424 17.9015C139.365 17.9015 140.224 18.2084 141.001 18.8221C141.779 19.4358 142.167 20.3768 142.167 21.6452V44.2295C142.167 46.2343 141.799 48.2186 141.063 50.1825C140.326 52.1873 139.242 53.967 137.81 55.5217C136.419 57.1174 134.68 58.4062 132.594 59.3881C130.548 60.37 128.216 60.861 125.597 60.861C124.288 60.861 122.897 60.7178 121.424 60.4314C119.992 60.1859 118.478 59.7563 116.883 59.1426Z" fill="#F0BD23"/>
</svg>
