<svg width="40" height="40" viewBox="0 0 40 40" fill="none" xmlns="http://www.w3.org/2000/svg">
<path d="M15.6662 6.57431C15.8132 5.68927 16.5806 5.03937 17.4787 5.03937H21.7129C22.611 5.03937 23.3785 5.68927 23.5254 6.57431L23.8732 8.66608C23.9761 9.27679 24.3844 9.78626 24.9265 10.0867C25.0473 10.152 25.1665 10.2222 25.2857 10.2941C25.8148 10.6141 26.4614 10.7138 27.0411 10.4966L29.0284 9.75197C29.4356 9.59881 29.884 9.59517 30.2937 9.7417C30.7034 9.88822 31.0477 10.1754 31.2655 10.5521L33.3817 14.2213C33.599 14.598 33.6756 15.0396 33.5978 15.4674C33.5201 15.8953 33.2931 16.2817 32.9572 16.558L31.3194 17.9084C30.8409 18.3003 30.6041 18.9094 30.6156 19.5282C30.6182 19.667 30.6182 19.8058 30.6156 19.9446C30.6041 20.5619 30.8409 21.1693 31.3177 21.5612L32.9588 22.9133C33.6512 23.4848 33.8308 24.4711 33.3834 25.2483L31.2638 28.9175C31.0464 29.2941 30.7024 29.5814 30.2931 29.7282C29.8837 29.875 29.4356 29.8718 29.0284 29.7193L27.0411 28.9747C26.4614 28.7575 25.8164 28.8571 25.2841 29.1771C25.1657 29.2491 25.0459 29.3188 24.9248 29.3862C24.3844 29.685 23.9761 30.1944 23.8732 30.8052L23.5254 32.8953C23.3785 33.782 22.611 34.4319 21.7129 34.4319H17.4771C16.579 34.4319 15.8115 33.782 15.6646 32.8969L15.3168 30.8052C15.2155 30.1944 14.8073 29.685 14.2652 29.3845C14.1441 29.3177 14.0243 29.2486 13.9059 29.1771C13.3752 28.8571 12.7302 28.7575 12.1489 28.9747L10.1616 29.7193C9.75461 29.872 9.3066 29.8754 8.89728 29.7289C8.48796 29.5824 8.14387 29.2955 7.92619 28.9191L5.80829 25.25C5.59102 24.8733 5.51444 24.4317 5.59219 24.0038C5.66993 23.5759 5.89695 23.1895 6.23285 22.9133L7.8723 21.5629C8.34911 21.171 8.58588 20.5619 8.57445 19.943C8.5719 19.8042 8.5719 19.6654 8.57445 19.5266C8.58588 18.9094 8.34911 18.3019 7.8723 17.91L6.23285 16.558C5.89735 16.2818 5.6706 15.8957 5.59287 15.4682C5.51514 15.0407 5.59146 14.5994 5.80829 14.2229L7.92619 10.5537C8.14367 10.1767 8.48793 9.88922 8.89763 9.74239C9.30733 9.59556 9.75585 9.59895 10.1633 9.75197L12.1489 10.4966C12.7302 10.7138 13.3752 10.6141 13.9059 10.2941C14.0235 10.2222 14.1443 10.152 14.2652 10.0851C14.8073 9.78626 15.2155 9.27679 15.3168 8.66608L15.6662 6.57431Z" fill="#001E78"/>
<path d="M23.0589 23.1995C23.9776 22.2808 24.4937 21.0348 24.4937 19.7356C24.4937 18.4364 23.9776 17.1904 23.0589 16.2717C22.1402 15.353 20.8942 14.8369 19.595 14.8369C18.2957 14.8369 17.0497 15.353 16.131 16.2717C15.2123 17.1904 14.6962 18.4364 14.6962 19.7356C14.6962 21.0348 15.2123 22.2808 16.131 23.1995C17.0497 24.1182 18.2957 24.6344 19.595 24.6344C20.8942 24.6344 22.1402 24.1182 23.0589 23.1995Z" fill="white"/>
</svg>
