<svg width="25" height="21" viewBox="0 0 25 21" fill="none" xmlns="http://www.w3.org/2000/svg">
<path fill-rule="evenodd" clip-rule="evenodd" d="M24.7748 2.91183C23.893 3.31342 22.9435 3.585 21.9475 3.70634C22.9646 3.08229 23.745 2.09277 24.1127 0.914001C23.1604 1.49183 22.1081 1.91219 20.984 2.13754C20.0881 1.15668 18.8076 0.544189 17.3904 0.544189C14.673 0.544189 12.4684 2.80493 12.4684 5.59294C12.4684 5.98875 12.5107 6.37301 12.5952 6.74282C8.50292 6.53191 4.87552 4.52396 2.44551 1.46582C2.0215 2.2141 1.77919 3.08229 1.77919 4.00681C1.77919 5.75763 2.64837 7.30331 3.96973 8.20905C3.16395 8.1845 2.40325 7.95481 1.73835 7.57922V7.64133C1.73835 10.0884 3.43583 12.1296 5.68975 12.5919C5.277 12.7103 4.84171 12.7695 4.39234 12.7695C4.07538 12.7695 3.76547 12.7392 3.46541 12.68C4.09228 14.685 5.9095 16.1455 8.06481 16.1845C6.38 17.5395 4.25569 18.347 1.94965 18.347C1.5524 18.347 1.15937 18.3239 0.774799 18.2777C2.95406 19.7078 5.54324 20.5442 8.32261 20.5442C17.3805 20.5442 22.3321 12.8519 22.3321 6.17944C22.3321 5.95986 22.3279 5.74029 22.3194 5.52505C23.2816 4.81288 24.1169 3.92447 24.7748 2.91183Z" fill="#E5ECFF"/>
</svg>
