<svg width="21" height="21" viewBox="0 0 21 21" fill="none" xmlns="http://www.w3.org/2000/svg">
<path fill-rule="evenodd" clip-rule="evenodd" d="M10.3978 0.544189C4.88497 0.544189 0.400696 5.02972 0.400696 10.5441C0.400696 12.731 1.10596 14.7592 2.30487 16.4054L1.05886 20.1208L4.90255 18.8923C6.48345 19.9388 8.37004 20.5442 10.4036 20.5442C15.9164 20.5442 20.4007 16.0585 20.4007 10.5443C20.4007 5.0299 15.9164 0.544355 10.4036 0.544355H10.3978V0.544189ZM7.60605 5.6237C7.41215 5.1593 7.26519 5.14172 6.97144 5.12977C6.87142 5.12397 6.75995 5.11816 6.63638 5.11816C6.25422 5.11816 5.85464 5.22982 5.61363 5.47671C5.31988 5.77652 4.59104 6.47601 4.59104 7.91052C4.59104 9.34503 5.63718 10.7324 5.77817 10.9265C5.92513 11.1203 7.81769 14.1068 10.7562 15.324C13.0542 16.2763 13.7361 16.1881 14.2591 16.0764C15.0231 15.9118 15.9811 15.3472 16.2221 14.6655C16.4631 13.9834 16.4631 13.4013 16.3925 13.2779C16.322 13.1545 16.1279 13.0841 15.8341 12.9369C15.5404 12.7899 14.1121 12.0845 13.8417 11.9904C13.5772 11.8905 13.3246 11.9258 13.1248 12.2081C12.8427 12.602 12.5665 13.0018 12.3431 13.2427C12.1668 13.4309 11.8787 13.4544 11.6378 13.3544C11.3145 13.2193 10.4096 12.9016 9.29278 11.9081C8.42877 11.1381 7.84109 10.1799 7.67075 9.89189C7.50023 9.59805 7.65314 9.42732 7.78816 9.26871C7.93512 9.08637 8.07613 8.95712 8.22309 8.78655C8.37005 8.61616 8.45232 8.52789 8.54637 8.32796C8.64639 8.13401 8.57572 7.93408 8.50522 7.78708C8.43473 7.64008 7.84706 6.20557 7.60605 5.6237Z" fill="#E5ECFF"/>
</svg>
